<svg width="80" height="80" viewBox="0 0 80 80" fill="none" xmlns="http://www.w3.org/2000/svg">
<path d="M 71.014 39.607 C 71.014 38.765 70.93 37.418 70.425 29.505 L 69.667 22.181 C 69.33 19.656 68.91 17.131 66.889 8.797 C 66.3 7.029 65.627 5.514 62.764 1.137 C 61.923 0.463 61.081 0.042 60.239 0.042 C 58.976 0.042 57.966 0.463 57.293 1.221 C 56.535 2.063 56.198 3.073 56.198 4.336 C 56.198 5.177 56.451 5.935 58.64 8.544 C 59.734 9.807 60.744 11.238 63.27 17.804 L 64.785 27.316 C 65.121 30.599 65.374 33.798 65.374 36.997 C 65.374 38.428 65.29 40.112 64.701 48.698 C 64.448 51.055 64.196 53.496 62.596 63.261 C 62.091 65.534 61.502 67.638 58.556 74.457 C 58.387 75.214 58.303 76.056 58.303 76.898 C 58.303 78.918 59.061 79.928 60.744 79.928 C 61.165 79.928 61.586 79.76 63.943 77.15 C 64.616 75.972 65.206 74.625 67.31 68.985 C 67.731 67.554 68.068 66.376 70.341 52.57 C 70.761 48.193 71.014 43.9 71.014 39.607 Z M 46.097 34.893 C 46.097 34.387 46.013 33.882 43.235 31.02 C 42.393 30.852 41.383 30.684 37.09 31.862 C 36.08 32.704 35.575 33.546 35.911 35.819 C 36.164 36.239 36.585 36.66 39.279 38.26 C 39.868 38.596 40.457 38.681 45.003 37.418 C 45.676 36.66 46.097 35.819 46.097 34.893 Z M 46.097 61.493 C 46.097 60.988 46.013 60.483 43.235 57.621 C 42.393 57.453 41.383 57.284 37.09 58.463 C 36.585 58.884 36.248 59.304 35.911 62.419 C 36.164 62.84 36.585 63.261 39.279 64.86 C 39.868 65.113 40.457 65.281 45.003 64.103 C 45.676 63.345 46.097 62.503 46.097 61.493 Z M 23.79 39.607 C 23.79 38.765 23.705 37.418 23.2 29.505 L 22.443 22.181 C 22.106 19.656 21.685 17.131 19.665 8.797 C 19.076 7.029 18.402 5.514 15.54 1.137 C 14.698 0.463 13.856 0.042 13.015 0.042 C 11.752 0.042 10.742 0.463 10.068 1.221 C 9.311 2.063 8.974 3.073 8.974 4.336 C 8.974 5.177 9.227 5.935 11.415 8.544 C 12.51 9.807 13.52 11.238 16.045 17.804 L 17.56 27.316 C 17.897 30.599 18.15 33.798 18.15 36.997 C 18.15 38.428 18.065 40.112 17.476 48.698 C 17.224 51.055 16.971 53.496 15.372 63.261 C 14.867 65.534 14.277 67.638 11.331 74.457 C 11.163 75.214 11.079 76.056 11.079 76.898 C 11.079 78.918 11.836 79.928 13.52 79.928 C 13.941 79.928 14.361 79.76 16.719 77.15 C 17.392 75.972 17.981 74.625 20.086 68.985 C 20.507 67.554 20.843 66.376 23.116 52.57 C 23.537 48.193 23.79 43.9 23.79 39.607 Z" stroke="#191919" stroke-width="6" stroke-linecap="round" stroke-linejoin="round"/>
</svg>