<svg width="256" height="256" viewBox="190 185 130 160" xmlns="http://www.w3.org/2000/svg">
  <defs>
    <linearGradient id="sappyRedGradient" x1="0%" y1="0%" x2="100%" y2="100%">
      <stop offset="0%" stop-color="#FF3333" />
      <stop offset="50%" stop-color="#CC0000" />
      <stop offset="100%" stop-color="#800000" />
    </linearGradient>
  </defs>

  <g fill="none" stroke="url(#sappyRedGradient)" stroke-width="18" stroke-linecap="round" stroke-linejoin="round">
    <!-- Right Curve -->
    <path d="M 306.548492 264.841003 C 306.548492 263.431 306.407501 261.174988 305.561493 247.92099 L 304.29248 235.653992 C 303.728516 231.424011 303.023499 227.194 299.639496 213.234985 C 298.652496 210.273987 297.524506 207.735992 292.730499 200.403992 C 291.320496 199.276001 289.910522 198.570984 288.500488 198.570984 C 286.385498 198.570984 284.693481 199.276001 283.565491 200.544983 C 282.296509 201.955017 281.732483 203.647003 281.732483 205.761993 C 281.732483 207.171997 282.155518 208.440979 285.821503 212.812012 C 287.65448 214.927002 289.346497 217.324005 293.576508 228.321991 L 296.114502 244.255005 C 296.678497 249.753998 297.101501 255.112 297.101501 260.470001 C 297.101501 262.867004 296.96051 265.687012 295.973511 280.069 C 295.550507 284.016998 295.127502 288.106018 292.448486 304.462006 C 291.602478 308.268982 290.615479 311.794006 285.680481 323.214996 C 285.398499 324.484009 285.257507 325.893982 285.257507 327.304016 C 285.257507 330.687988 286.526489 332.380005 289.346497 332.380005 C 290.051514 332.380005 290.7565 332.097992 294.704498 327.72699 C 295.83252 325.752991 296.819519 323.497009 300.344482 314.049988 C 301.0495 311.653015 301.613495 309.679016 305.420502 286.554993 C 306.125488 279.222992 306.548492 272.031982 306.548492 264.841003 Z" />

    <!-- Top Colon Dot -->
    <path d="M 264.8125 256.945007 C 264.8125 256.098999 264.671509 255.252991 260.018494 250.458984 C 258.608521 250.177002 256.916504 249.894989 249.725494 251.869019 C 248.033493 253.278992 247.1875 254.688995 247.751495 258.496002 C 248.1745 259.200989 248.879501 259.906006 253.391495 262.584991 C 254.378494 263.148987 255.365494 263.290009 262.979492 261.174988 C 264.107483 259.906006 264.8125 258.496002 264.8125 256.945007 Z" />

    <!-- Bottom Colon Dot -->
    <path d="M 264.8125 301.501007 C 264.8125 300.654999 264.671509 299.80899 260.018494 295.015015 C 258.608521 294.733002 256.916504 294.450989 249.725494 296.424988 C 248.879501 297.130005 248.315506 297.834991 247.751495 303.052002 C 248.1745 303.757019 248.879501 304.462006 253.391495 307.140991 C 254.378494 307.563995 255.365494 307.846008 262.979492 305.872009 C 264.107483 304.602997 264.8125 303.192993 264.8125 301.501007 Z" />

    <!-- Left Curve -->
    <path d="M 227.447495 264.841003 C 227.447495 263.431 227.306503 261.174988 226.460495 247.92099 L 225.191498 235.653992 C 224.627502 231.424011 223.922501 227.194 220.538498 213.234985 C 219.551498 210.273987 218.423492 207.735992 213.629501 200.403992 C 212.219498 199.276001 210.809494 198.570984 209.399506 198.570984 C 207.2845 198.570984 205.592499 199.276001 204.464493 200.544983 C 203.195496 201.955017 202.6315 203.647003 202.6315 205.761993 C 202.6315 207.171997 203.054504 208.440979 206.720505 212.812012 C 208.553497 214.927002 210.245499 217.324005 214.475494 228.321991 L 217.013504 244.255005 C 217.577499 249.753998 218.000504 255.112 218.000504 260.470001 C 218.000504 262.867004 217.859497 265.687012 216.872498 280.069 C 216.449493 284.016998 216.026505 288.106018 213.347504 304.462006 C 212.501495 308.268982 211.514496 311.794006 206.579498 323.214996 C 206.297501 324.484009 206.156494 325.893982 206.156494 327.304016 C 206.156494 330.687988 207.425507 332.380005 210.245499 332.380005 C 210.9505 332.380005 211.655502 332.097992 215.6035 327.72699 C 216.731506 325.752991 217.718506 323.497009 221.2435 314.049988 C 221.948502 311.653015 222.512497 309.679016 226.319504 286.554993 C 227.024506 279.222992 227.447495 272.031982 227.447495 264.841003 Z" />
  </g>
</svg>
